<svg width="54" height="54" viewBox="0 0 54 54" fill="none" xmlns="http://www.w3.org/2000/svg">
<path d="M26.9933 50.125H26.9928C14.2262 50.125 3.87388 39.7702 3.875 27.0001L26.9933 50.125ZM26.9933 50.125C39.7667 50.1231 50.1202 39.7709 50.1202 27.0008M26.9933 50.125L50.1202 27.0008M50.1202 27.0008C50.1202 14.23 39.7675 3.875 26.996 3.875C14.2255 3.875 3.87203 14.2274 3.875 26.9987L50.1202 27.0008Z" fill="#EAB300" stroke="white" stroke-width="6.25"/>
<path d="M46.402 31.8381C43.7309 42.5525 32.8789 49.0731 22.1633 46.4012C11.4521 43.7301 4.93154 32.8775 7.60385 22.1639C10.2738 11.4484 21.1258 4.92732 31.8381 7.59847C42.553 10.2696 49.0732 21.1234 46.4017 31.8383L46.4019 31.8381H46.402Z" fill="#419300"/>
<g clip-path="url(#clip0_76_3853)">
<path d="M32.835 28.0619C31.7923 27.1007 30.1942 26.2929 28.0941 25.6631C26.5833 25.1855 25.5357 24.6858 24.9792 24.1788C24.4699 23.7147 24.2226 23.1193 24.2226 22.3569C24.2226 21.4951 24.4638 20.8444 24.9598 20.3656C25.4545 19.8868 26.2378 19.645 27.2866 19.645C28.2614 19.645 28.9974 19.9494 29.537 20.5768C30.0948 21.2238 30.3651 22.0917 30.3651 23.1586C30.3651 23.4311 30.5834 23.6853 30.8526 23.6853H33.8014C34.0706 23.6853 34.2888 23.4299 34.2888 23.1586C34.2888 21.2508 33.7141 19.6806 32.7101 18.5229C31.7862 17.4597 30.4379 16.7673 28.8616 16.4948V13.8282C28.8616 13.5557 28.7743 13.25 28.5052 13.25H26.1274C25.8582 13.25 25.7079 13.5557 25.7079 13.8282V16.4788C24.1316 16.7329 22.833 17.3455 21.8897 18.3019C20.8469 19.3589 20.3013 20.7376 20.3013 22.3987C20.3013 24.0597 20.8675 25.5145 22.0024 26.5544C23.0864 27.5488 24.6894 28.3492 26.7773 28.9336C28.1717 29.3731 29.1708 29.8691 29.7516 30.4056C30.2875 30.9028 30.5482 31.4835 30.5482 32.1808C30.5482 33.0402 30.2524 33.6896 29.6449 34.1672C29.0083 34.6669 28.088 34.921 26.9119 34.921C25.8885 34.921 25.0507 34.6558 24.3499 34.1095C23.6975 33.6025 23.3665 32.7541 23.3665 31.4921C23.3665 31.2195 23.1483 31.0489 22.8791 31.0489H20.0188C19.8248 31.0489 19.6502 31.1152 19.5726 31.2944L19.5423 31.3386C19.5168 31.3975 19.5035 31.4479 19.5022 31.5129C19.4586 33.5865 20.0527 35.1874 21.2616 36.2813C22.3419 37.2597 23.7679 37.865 25.3441 38.0945V40.3179C25.3441 40.5904 25.5575 40.7463 25.8255 40.7463H28.1875C28.4567 40.7463 28.738 40.5904 28.738 40.3179V38.081C30.4355 37.849 31.7826 37.2597 32.8035 36.3291C33.9384 35.293 34.4986 33.8873 34.4986 32.1513C34.4986 30.4154 33.9275 29.0674 32.8338 28.0583L32.835 28.0619Z" fill="white"/>
</g>
<defs>
<clipPath id="clip0_76_3853">
<rect width="15" height="27.5" fill="white" transform="translate(19.5 13.25)"/>
</clipPath>
</defs>
</svg>
