<svg width="86" height="86" viewBox="0 0 86 86" fill="none" xmlns="http://www.w3.org/2000/svg">
<g filter="url(#filter0_dd_76_3840)">
<path d="M42.9933 58.125H42.9928C30.2262 58.125 19.8739 47.7702 19.875 35.0001L42.9933 58.125ZM42.9933 58.125C55.7667 58.1232 66.1202 47.7709 66.1202 35.0008M42.9933 58.125L66.1202 35.0008M66.1202 35.0008C66.1202 22.23 55.7675 11.875 42.996 11.875C30.2255 11.875 19.872 22.2274 19.875 34.9987L66.1202 35.0008Z" fill="#EAB300" stroke="white" stroke-width="6.25"/>
<g filter="url(#filter1_dd_76_3840)">
<path d="M42.9933 58.125H42.9928C30.2262 58.125 19.8739 47.7702 19.875 35.0001L42.9933 58.125ZM42.9933 58.125C55.7667 58.1232 66.1202 47.7709 66.1202 35.0008M42.9933 58.125L66.1202 35.0008M66.1202 35.0008C66.1202 22.23 55.7675 11.875 42.996 11.875C30.2255 11.875 19.872 22.2274 19.875 34.9987L66.1202 35.0008Z" fill="#EAB300" stroke="white" stroke-width="6.25"/>
<path fill-rule="evenodd" clip-rule="evenodd" d="M50.8662 30.1018C50.6086 27.4233 48.2965 26.5257 45.3748 26.2697V22.5527H43.1139V26.1705C42.5202 26.1705 41.9122 26.1817 41.309 26.1945V22.5527H39.0481L39.0465 26.2665L39.0223 26.267C38.541 26.2764 38.0675 26.2857 37.6065 26.2857V26.2745L34.4879 26.2729V28.689C34.4879 28.689 36.1584 28.657 36.1296 28.6874C37.0464 28.6874 37.344 29.2186 37.4304 29.6778V33.9116C37.4944 33.9116 37.5761 33.9148 37.6689 33.9276H37.4304L37.4288 39.859C37.3888 40.147 37.2192 40.6063 36.5792 40.6079C36.608 40.6335 34.9359 40.6079 34.9359 40.6079L34.4863 43.3088H37.4304C37.7624 43.3088 38.0914 43.3123 38.4167 43.3158H38.4169L38.4177 43.3158C38.6284 43.3181 38.8375 43.3203 39.0449 43.3216L39.0465 47.0801H41.3058V43.3616C41.925 43.3744 42.525 43.3792 43.1123 43.3792L43.1107 47.0801H45.3716V43.3296C49.1733 43.112 51.8374 42.1535 52.167 38.5822C52.4342 35.7069 51.0822 34.422 48.9237 33.9036C50.2374 33.238 51.0582 32.0619 50.8662 30.1018ZM47.7012 38.1372C47.7012 40.7165 43.6448 40.6581 41.7946 40.6314H41.7945C41.6304 40.6291 41.4836 40.6269 41.3586 40.6269V35.6459C41.5149 35.6463 41.7051 35.642 41.9208 35.6371C43.8226 35.5944 47.7012 35.5074 47.7012 38.1372ZM41.7368 33.3733C43.2849 33.3977 46.6484 33.4509 46.6484 31.1115C46.6498 28.7172 43.4087 28.803 41.8242 28.8449C41.6456 28.8496 41.4881 28.8538 41.3586 28.8538V33.3692C41.4665 33.369 41.5939 33.371 41.7368 33.3733Z" fill="white"/>
<path d="M37.4336 33.812H37.7696V34.06H37.4336V33.812Z" fill="white"/>
<path d="M62.3971 39.8381C59.726 50.5525 48.8741 57.0731 38.1584 54.4012C27.4472 51.7301 20.9267 40.8775 23.599 30.1639C26.2689 19.4484 37.1209 12.9273 47.8332 15.5985C58.5481 18.2696 65.0683 29.1234 62.3968 39.8383L62.397 39.8381H62.3971Z" fill="#50AF95"/>
<path fill-rule="evenodd" clip-rule="evenodd" d="M45.5309 37.2676V37.2676C45.3894 37.2782 44.6588 37.3218 43.0289 37.3218C41.7326 37.3218 40.8122 37.2829 40.4893 37.2676V37.2676C35.4796 37.0472 31.7402 36.1751 31.7402 35.131C31.7402 34.0869 35.4796 33.216 40.4893 32.992V36.399C40.8169 36.4226 41.755 36.478 43.0513 36.478C44.6069 36.478 45.3859 36.4132 45.5261 36.4002V32.9944C50.5253 33.2171 54.2564 34.0892 54.2564 35.131C54.2564 36.1728 50.5265 37.0449 45.5261 37.2664V37.2664L45.5309 37.2676ZM45.5309 32.6419V29.5932H52.5075V24.944H33.5127V29.5932H40.4881V32.6407C34.8184 32.9012 30.5547 34.0243 30.5547 35.3701C30.5547 36.7159 34.8184 37.8378 40.4881 38.0994V47.8691H45.5297V38.0959C51.1864 37.8355 55.4431 36.7136 55.4431 35.3689C55.4431 34.0243 51.1899 32.9023 45.5297 32.6407V32.6407L45.5309 32.6419Z" fill="white"/>
</g>
</g>
<defs>
<filter id="filter0_dd_76_3840" x="0.75" y="0.75" width="84.4952" height="84.5" filterUnits="userSpaceOnUse" color-interpolation-filters="sRGB">
<feFlood flood-opacity="0" result="BackgroundImageFix"/>
<feColorMatrix in="SourceAlpha" type="matrix" values="0 0 0 0 0 0 0 0 0 0 0 0 0 0 0 0 0 0 127 0" result="hardAlpha"/>
<feOffset dy="8"/>
<feGaussianBlur stdDeviation="8"/>
<feColorMatrix type="matrix" values="0 0 0 0 0 0 0 0 0 0 0 0 0 0 0 0 0 0 0.08 0"/>
<feBlend mode="normal" in2="BackgroundImageFix" result="effect1_dropShadow_76_3840"/>
<feColorMatrix in="SourceAlpha" type="matrix" values="0 0 0 0 0 0 0 0 0 0 0 0 0 0 0 0 0 0 127 0" result="hardAlpha"/>
<feOffset/>
<feGaussianBlur stdDeviation="2"/>
<feColorMatrix type="matrix" values="0 0 0 0 0 0 0 0 0 0 0 0 0 0 0 0 0 0 0.04 0"/>
<feBlend mode="normal" in2="effect1_dropShadow_76_3840" result="effect2_dropShadow_76_3840"/>
<feBlend mode="normal" in="SourceGraphic" in2="effect2_dropShadow_76_3840" result="shape"/>
</filter>
<filter id="filter1_dd_76_3840" x="0.75" y="0.75" width="84.4952" height="84.5" filterUnits="userSpaceOnUse" color-interpolation-filters="sRGB">
<feFlood flood-opacity="0" result="BackgroundImageFix"/>
<feColorMatrix in="SourceAlpha" type="matrix" values="0 0 0 0 0 0 0 0 0 0 0 0 0 0 0 0 0 0 127 0" result="hardAlpha"/>
<feOffset dy="8"/>
<feGaussianBlur stdDeviation="8"/>
<feColorMatrix type="matrix" values="0 0 0 0 0 0 0 0 0 0 0 0 0 0 0 0 0 0 0.08 0"/>
<feBlend mode="normal" in2="BackgroundImageFix" result="effect1_dropShadow_76_3840"/>
<feColorMatrix in="SourceAlpha" type="matrix" values="0 0 0 0 0 0 0 0 0 0 0 0 0 0 0 0 0 0 127 0" result="hardAlpha"/>
<feOffset/>
<feGaussianBlur stdDeviation="2"/>
<feColorMatrix type="matrix" values="0 0 0 0 0 0 0 0 0 0 0 0 0 0 0 0 0 0 0.04 0"/>
<feBlend mode="normal" in2="effect1_dropShadow_76_3840" result="effect2_dropShadow_76_3840"/>
<feBlend mode="normal" in="SourceGraphic" in2="effect2_dropShadow_76_3840" result="shape"/>
</filter>
</defs>
</svg>
